<svg width="512" height="512" viewBox="0 0 512 512" fill="none" xmlns="http://www.w3.org/2000/svg">
<path d="M413.7 133.4C411.3 124.4 409.7 119.4 409.7 119.4C407.1 110.1 400.5 110.1 390.7 108.5L337.6 101.8C331 100.7 331 100.7 328.4 95C319.7 75.4 317 64 307.5 64H204.5C195 64 192.4 75.4 183.7 95.1C181.1 100.7 181.1 100.7 174.5 101.9L121.3 108.6C111.6 110.2 104.6 111.1 102 120.4C102 120.4 100.8 124.5 98.3 133.4C95.1 145.3 93.8 144 104.8 144H407.2C418.2 144.1 417 145.3 413.7 133.4ZM379.4 176H132.6C116 176 115.2 178.2 116.2 190.7L134.9 433.3C136.5 445.6 137.7 448.1 152.4 448.1H359.6C374.3 448.1 375.5 445.6 377.1 433.3L395.8 190.7C396.8 178.1 396 176 379.4 176Z" fill="white"/>
</svg>
